<?xml version="1.0" standalone="no"?>
<!DOCTYPE svg PUBLIC "-//W3C//DTD SVG 20010904//EN"
 "http://www.w3.org/TR/2001/REC-SVG-20010904/DTD/svg10.dtd">
<svg version="1.0" xmlns="http://www.w3.org/2000/svg"
 width="93.000000pt" height="80.000000pt" viewBox="0 0 93.000000 80.000000"
 preserveAspectRatio="xMidYMid meet">

<g transform="translate(0.000000,80.000000) scale(0.100000,-0.100000)"
fill="#000000" stroke="none">
<path d="M183 684 c3 -11 11 -39 17 -64 18 -67 65 -155 107 -197 21 -20 29
-34 19 -30 -11 4 -1 -13 26 -45 23 -29 36 -48 28 -43 -8 4 -2 -6 14 -23 17
-18 35 -32 41 -32 6 0 18 -11 25 -25 7 -14 15 -23 17 -21 2 2 -11 30 -30 62
-72 125 -98 174 -94 174 3 0 27 -37 53 -82 33 -57 50 -77 52 -64 6 28 -8 87
-19 81 -5 -4 -9 1 -9 9 0 21 -31 98 -37 92 -3 -2 -17 18 -32 47 -18 35 -51 71
-105 115 -49 40 -76 57 -73 46z"/>
<path d="M429 183 c-1 -5 -1 -12 0 -17 1 -4 -4 -14 -10 -22 -9 -11 -8 -21 1
-44 12 -29 14 -30 85 -30 73 0 73 0 84 31 8 23 8 36 0 45 -6 7 -8 17 -5 23 3
5 -1 12 -10 15 -23 9 -144 7 -145 -1z m144 -75 c-10 -22 -11 -21 -10 10 0 22
3 30 10 23 7 -7 7 -18 0 -33z"/>
</g>
</svg>
