<?xml version="1.0" standalone="no"?>
<!DOCTYPE svg PUBLIC "-//W3C//DTD SVG 20010904//EN"
 "http://www.w3.org/TR/2001/REC-SVG-20010904/DTD/svg10.dtd">
<svg version="1.0" xmlns="http://www.w3.org/2000/svg"
 width="220.000000pt" height="40.000000pt" viewBox="0 0 220.000000 40.000000"
 preserveAspectRatio="xMidYMid meet">

<g transform="translate(0.000000,40.000000) scale(0.100000,-0.100000)"
fill="#000000" stroke="none">
<path d="M85 388 c-6 -16 -55 -257 -55 -269 0 -5 7 -9 15 -9 8 0 15 2 15 5 0
8 51 248 56 268 6 20 -24 25 -31 5z"/>
<path d="M405 378 c-11 -47 -55 -258 -55 -263 0 -3 6 -5 14 -5 8 0 17 14 21
32 8 36 31 68 50 68 6 0 19 -22 29 -50 13 -35 23 -50 36 -50 18 0 17 4 -6 55
-13 31 -24 62 -24 70 0 7 19 30 42 49 30 26 36 36 24 36 -10 0 -45 -23 -78
-51 -51 -45 -58 -49 -54 -28 3 13 11 47 16 74 6 28 13 58 16 68 4 11 0 17 -10
17 -9 0 -18 -10 -21 -22z"/>
<path d="M772 388 c-25 -12 -37 -47 -29 -79 4 -16 -4 -30 -29 -54 -49 -47 -46
-103 7 -130 35 -19 57 -19 93 0 21 11 32 12 42 4 8 -6 21 -8 30 -5 15 6 15 8
-1 26 -16 17 -16 21 -1 42 9 12 16 26 16 30 0 15 -29 8 -40 -9 -9 -16 -12 -15
-35 12 -32 38 -31 46 5 67 38 22 45 71 12 96 -19 14 -39 14 -70 0z m62 -33 c7
-18 -30 -58 -47 -52 -14 4 -21 32 -13 53 7 19 52 18 60 -1z m-40 -139 c31 -41
32 -52 7 -66 -28 -14 -52 -12 -73 7 -22 20 -23 51 -1 75 23 26 37 23 67 -16z"/>
<path d="M1100 388 c0 -7 -13 -73 -29 -145 -26 -122 -27 -133 -11 -133 13 0
20 14 29 60 l12 60 53 0 c97 0 146 33 146 100 0 53 -28 70 -120 70 -57 0 -80
-4 -80 -12z m158 -30 c18 -18 14 -49 -10 -75 -18 -19 -32 -23 -81 -23 l-59 0
6 38 c13 73 12 72 75 72 31 0 62 -5 69 -12z"/>
<path d="M165 298 c-11 -50 -35 -170 -35 -179 0 -5 7 -9 15 -9 8 0 15 7 15 15
0 43 25 121 46 142 25 25 72 31 80 10 2 -7 -2 -42 -11 -78 -18 -79 -18 -89 -2
-89 15 0 51 158 41 184 -9 23 -51 31 -82 15 -15 -7 -30 -15 -34 -17 -5 -2 -8
3 -8 12 0 24 -19 19 -25 -6z"/>
<path d="M1366 299 c-27 -21 -34 -39 -15 -39 6 0 17 7 25 15 20 20 68 19 85
-1 19 -23 -13 -44 -68 -44 -48 0 -83 -26 -83 -60 0 -25 34 -60 59 -60 11 0 32
5 48 11 19 7 29 7 31 0 2 -6 9 -11 16 -11 12 0 38 154 29 176 -6 15 -48 34
-77 34 -13 0 -35 -9 -50 -21z m87 -109 c-11 -42 -78 -66 -102 -36 -14 17 -5
43 17 49 10 3 33 5 54 6 32 1 35 -1 31 -19z"/>
<path d="M1570 308 c0 -7 -14 -73 -29 -146 -25 -117 -27 -133 -13 -130 11 2
20 20 26 53 5 28 10 52 12 54 1 1 13 -4 26 -13 31 -22 52 -20 87 10 57 48 61
144 8 174 -25 14 -30 13 -57 -2 -25 -14 -30 -15 -30 -3 0 18 -30 20 -30 3z
m116 -43 c40 -60 -51 -164 -96 -110 -17 20 -7 91 16 116 24 27 60 24 80 -6z"/>
<path d="M1818 304 c-36 -19 -58 -63 -58 -113 0 -52 38 -86 89 -77 48 7 107
66 68 66 -8 0 -22 -9 -32 -20 -20 -22 -64 -27 -83 -8 -7 7 -12 22 -12 35 0 22
3 23 74 23 82 0 93 8 75 58 -17 48 -70 64 -121 36z m86 -30 c27 -27 18 -34
-44 -34 -64 0 -74 9 -38 34 29 20 62 20 82 0z"/>
<path d="M2015 298 c-40 -175 -42 -192 -24 -186 7 2 19 34 28 71 18 71 41 104
74 109 23 3 36 28 14 28 -8 0 -26 -9 -41 -21 l-26 -20 0 20 c0 28 -18 27 -25
-1z"/>
</g>
</svg>
